<mxfile host="app.diagrams.net" modified="2024-02-22T09:57:57.391Z" agent="Mozilla/5.0 (Windows NT 10.0; Win64; x64) AppleWebKit/537.36 (KHTML, like Gecko) Chrome/121.0.0.0 Safari/537.36" etag="Q8zbZp1LKz2myYM-Ql87" version="23.1.5" type="device">
  <diagram name="Page-1" id="0wYfP2QB9W7366TN0-wd">
    <mxGraphModel dx="1720" dy="749" grid="1" gridSize="10" guides="1" tooltips="1" connect="1" arrows="1" fold="1" page="1" pageScale="1" pageWidth="850" pageHeight="1100" math="0" shadow="0">
      <root>
        <mxCell id="0" />
        <mxCell id="1" parent="0" />
        <mxCell id="sed4JzWXdzyUHWOQvcSt-21" value="" style="rounded=1;whiteSpace=wrap;html=1;" parent="1" vertex="1">
          <mxGeometry x="360" y="110" width="120" height="90" as="geometry" />
        </mxCell>
        <mxCell id="qKXC1brmMdw-7b1Lw4Be-31" style="edgeStyle=orthogonalEdgeStyle;rounded=0;orthogonalLoop=1;jettySize=auto;html=1;entryX=0;entryY=0.5;entryDx=0;entryDy=0;" parent="1" source="sed4JzWXdzyUHWOQvcSt-22" target="sed4JzWXdzyUHWOQvcSt-23" edge="1">
          <mxGeometry relative="1" as="geometry" />
        </mxCell>
        <mxCell id="sed4JzWXdzyUHWOQvcSt-22" value="External Entity" style="rounded=0;whiteSpace=wrap;html=1;" parent="1" vertex="1">
          <mxGeometry x="40" y="135" width="80" height="40" as="geometry" />
        </mxCell>
        <mxCell id="qKXC1brmMdw-7b1Lw4Be-32" style="edgeStyle=orthogonalEdgeStyle;rounded=0;orthogonalLoop=1;jettySize=auto;html=1;entryX=0;entryY=0.5;entryDx=0;entryDy=0;" parent="1" source="sed4JzWXdzyUHWOQvcSt-23" target="qKXC1brmMdw-7b1Lw4Be-7" edge="1">
          <mxGeometry relative="1" as="geometry" />
        </mxCell>
        <mxCell id="sed4JzWXdzyUHWOQvcSt-23" value="0&lt;br&gt;&lt;br&gt;Cloudburst &lt;br&gt;Prediction" style="ellipse;whiteSpace=wrap;html=1;" parent="1" vertex="1">
          <mxGeometry x="373.75" y="122.5" width="92.5" height="65" as="geometry" />
        </mxCell>
        <mxCell id="sed4JzWXdzyUHWOQvcSt-29" value="Level 0" style="text;html=1;align=center;verticalAlign=middle;resizable=0;points=[];autosize=1;strokeColor=none;fillColor=none;" parent="1" vertex="1">
          <mxGeometry x="395" y="80" width="60" height="30" as="geometry" />
        </mxCell>
        <mxCell id="sed4JzWXdzyUHWOQvcSt-30" value="" style="rounded=1;whiteSpace=wrap;html=1;" parent="1" vertex="1">
          <mxGeometry x="140" y="240" width="560" height="140" as="geometry" />
        </mxCell>
        <mxCell id="qKXC1brmMdw-7b1Lw4Be-33" style="edgeStyle=orthogonalEdgeStyle;rounded=0;orthogonalLoop=1;jettySize=auto;html=1;" parent="1" source="sed4JzWXdzyUHWOQvcSt-32" target="sed4JzWXdzyUHWOQvcSt-34" edge="1">
          <mxGeometry relative="1" as="geometry" />
        </mxCell>
        <mxCell id="sed4JzWXdzyUHWOQvcSt-32" value="External Entity" style="rounded=0;whiteSpace=wrap;html=1;" parent="1" vertex="1">
          <mxGeometry x="40" y="270" width="80" height="40" as="geometry" />
        </mxCell>
        <mxCell id="qKXC1brmMdw-7b1Lw4Be-34" style="edgeStyle=orthogonalEdgeStyle;rounded=0;orthogonalLoop=1;jettySize=auto;html=1;entryX=0.388;entryY=-0.013;entryDx=0;entryDy=0;entryPerimeter=0;" parent="1" source="sed4JzWXdzyUHWOQvcSt-34" target="msj6g4gSFK3G4fQuRRlu-6" edge="1">
          <mxGeometry relative="1" as="geometry" />
        </mxCell>
        <mxCell id="sed4JzWXdzyUHWOQvcSt-34" value="0.1&lt;br&gt;Data &lt;br&gt;Acquisition" style="ellipse;whiteSpace=wrap;html=1;" parent="1" vertex="1">
          <mxGeometry x="150" y="255" width="80" height="70" as="geometry" />
        </mxCell>
        <mxCell id="sed4JzWXdzyUHWOQvcSt-35" value="External Entity" style="rounded=0;whiteSpace=wrap;html=1;" parent="1" vertex="1">
          <mxGeometry x="720" y="270" width="80" height="40" as="geometry" />
        </mxCell>
        <mxCell id="sed4JzWXdzyUHWOQvcSt-36" value="Level 1" style="text;html=1;align=center;verticalAlign=middle;resizable=0;points=[];autosize=1;strokeColor=none;fillColor=none;" parent="1" vertex="1">
          <mxGeometry x="395" y="210" width="60" height="30" as="geometry" />
        </mxCell>
        <mxCell id="qKXC1brmMdw-7b1Lw4Be-35" style="edgeStyle=orthogonalEdgeStyle;rounded=0;orthogonalLoop=1;jettySize=auto;html=1;" parent="1" source="sed4JzWXdzyUHWOQvcSt-37" target="msj6g4gSFK3G4fQuRRlu-15" edge="1">
          <mxGeometry relative="1" as="geometry">
            <Array as="points">
              <mxPoint x="560" y="290" />
            </Array>
          </mxGeometry>
        </mxCell>
        <mxCell id="sed4JzWXdzyUHWOQvcSt-37" value="0.2&lt;br&gt;Data preprocessing, training and evaluation" style="ellipse;whiteSpace=wrap;html=1;" parent="1" vertex="1">
          <mxGeometry x="365" y="250" width="120" height="80" as="geometry" />
        </mxCell>
        <mxCell id="sed4JzWXdzyUHWOQvcSt-42" value="" style="rounded=1;whiteSpace=wrap;html=1;" parent="1" vertex="1">
          <mxGeometry x="170" y="420" width="510" height="140" as="geometry" />
        </mxCell>
        <mxCell id="sed4JzWXdzyUHWOQvcSt-43" value="Level 2" style="text;html=1;align=center;verticalAlign=middle;resizable=0;points=[];autosize=1;strokeColor=none;fillColor=none;" parent="1" vertex="1">
          <mxGeometry x="400" y="390" width="60" height="30" as="geometry" />
        </mxCell>
        <mxCell id="qKXC1brmMdw-7b1Lw4Be-28" style="edgeStyle=orthogonalEdgeStyle;rounded=0;orthogonalLoop=1;jettySize=auto;html=1;entryX=0;entryY=0.5;entryDx=0;entryDy=0;" parent="1" source="sed4JzWXdzyUHWOQvcSt-44" target="sed4JzWXdzyUHWOQvcSt-46" edge="1">
          <mxGeometry relative="1" as="geometry" />
        </mxCell>
        <mxCell id="msj6g4gSFK3G4fQuRRlu-31" style="edgeStyle=orthogonalEdgeStyle;rounded=0;orthogonalLoop=1;jettySize=auto;html=1;exitX=0.5;exitY=1;exitDx=0;exitDy=0;entryX=0.546;entryY=1.024;entryDx=0;entryDy=0;entryPerimeter=0;" edge="1" parent="1" source="sed4JzWXdzyUHWOQvcSt-44" target="sed4JzWXdzyUHWOQvcSt-51">
          <mxGeometry relative="1" as="geometry">
            <mxPoint x="670" y="499" as="targetPoint" />
            <mxPoint x="394.8" y="504.29999999999984" as="sourcePoint" />
            <Array as="points">
              <mxPoint x="380" y="521" />
              <mxPoint x="629" y="521" />
              <mxPoint x="629" y="510" />
              <mxPoint x="629" y="510" />
            </Array>
          </mxGeometry>
        </mxCell>
        <mxCell id="sed4JzWXdzyUHWOQvcSt-44" value="0.2.2&lt;br&gt;Spliting &lt;br&gt;Dataset&amp;nbsp;" style="ellipse;whiteSpace=wrap;html=1;" parent="1" vertex="1">
          <mxGeometry x="345" y="439.55" width="70" height="59" as="geometry" />
        </mxCell>
        <mxCell id="qKXC1brmMdw-7b1Lw4Be-25" style="edgeStyle=orthogonalEdgeStyle;rounded=0;orthogonalLoop=1;jettySize=auto;html=1;entryX=0;entryY=0.5;entryDx=0;entryDy=0;" parent="1" source="sed4JzWXdzyUHWOQvcSt-46" target="sed4JzWXdzyUHWOQvcSt-51" edge="1">
          <mxGeometry relative="1" as="geometry">
            <mxPoint x="590.0000000000005" y="468.54999999999984" as="targetPoint" />
          </mxGeometry>
        </mxCell>
        <mxCell id="sed4JzWXdzyUHWOQvcSt-46" value="0.2.3&lt;br&gt;Model &lt;br&gt;Training" style="ellipse;whiteSpace=wrap;html=1;" parent="1" vertex="1">
          <mxGeometry x="470" y="439.55" width="65" height="58" as="geometry" />
        </mxCell>
        <mxCell id="sed4JzWXdzyUHWOQvcSt-48" value="0.2.1&lt;br&gt;Data Preprocessing" style="ellipse;whiteSpace=wrap;html=1;" parent="1" vertex="1">
          <mxGeometry x="195" y="430.27" width="90" height="79" as="geometry" />
        </mxCell>
        <mxCell id="sed4JzWXdzyUHWOQvcSt-51" value="0.2&lt;br&gt;Testing Model &lt;br&gt;Evaluation" style="ellipse;whiteSpace=wrap;html=1;" parent="1" vertex="1">
          <mxGeometry x="585" y="438.82000000000005" width="80" height="60.45" as="geometry" />
        </mxCell>
        <mxCell id="qKXC1brmMdw-7b1Lw4Be-36" style="edgeStyle=orthogonalEdgeStyle;rounded=0;orthogonalLoop=1;jettySize=auto;html=1;entryX=0;entryY=0.5;entryDx=0;entryDy=0;" parent="1" source="qKXC1brmMdw-7b1Lw4Be-5" target="sed4JzWXdzyUHWOQvcSt-35" edge="1">
          <mxGeometry relative="1" as="geometry" />
        </mxCell>
        <mxCell id="qKXC1brmMdw-7b1Lw4Be-5" value="0.3&lt;br&gt;Display&lt;br&gt;Result" style="ellipse;whiteSpace=wrap;html=1;" parent="1" vertex="1">
          <mxGeometry x="610" y="255" width="80" height="70" as="geometry" />
        </mxCell>
        <mxCell id="qKXC1brmMdw-7b1Lw4Be-7" value="External Entity" style="rounded=0;whiteSpace=wrap;html=1;" parent="1" vertex="1">
          <mxGeometry x="720" y="135" width="80" height="40" as="geometry" />
        </mxCell>
        <mxCell id="qKXC1brmMdw-7b1Lw4Be-37" value="Data Flow Diagram" style="text;html=1;align=center;verticalAlign=middle;resizable=0;points=[];autosize=1;strokeColor=none;fillColor=none;" parent="1" vertex="1">
          <mxGeometry x="355" y="50" width="130" height="30" as="geometry" />
        </mxCell>
        <mxCell id="msj6g4gSFK3G4fQuRRlu-2" value="Weather Data" style="text;html=1;align=center;verticalAlign=middle;resizable=0;points=[];autosize=1;strokeColor=none;fillColor=none;" vertex="1" parent="1">
          <mxGeometry x="190" y="128" width="100" height="30" as="geometry" />
        </mxCell>
        <mxCell id="msj6g4gSFK3G4fQuRRlu-3" value="Prediction" style="text;html=1;align=center;verticalAlign=middle;resizable=0;points=[];autosize=1;strokeColor=none;fillColor=none;" vertex="1" parent="1">
          <mxGeometry x="535" y="128" width="80" height="30" as="geometry" />
        </mxCell>
        <mxCell id="msj6g4gSFK3G4fQuRRlu-4" value="" style="endArrow=none;html=1;rounded=0;" edge="1" parent="1">
          <mxGeometry width="50" height="50" relative="1" as="geometry">
            <mxPoint x="245" y="369.5" as="sourcePoint" />
            <mxPoint x="315" y="369.5" as="targetPoint" />
          </mxGeometry>
        </mxCell>
        <mxCell id="msj6g4gSFK3G4fQuRRlu-5" value="" style="endArrow=none;html=1;rounded=0;" edge="1" parent="1">
          <mxGeometry width="50" height="50" relative="1" as="geometry">
            <mxPoint x="245" y="340" as="sourcePoint" />
            <mxPoint x="315" y="340" as="targetPoint" />
          </mxGeometry>
        </mxCell>
        <mxCell id="msj6g4gSFK3G4fQuRRlu-6" value="Data Store" style="text;html=1;align=center;verticalAlign=middle;resizable=0;points=[];autosize=1;strokeColor=none;fillColor=none;" vertex="1" parent="1">
          <mxGeometry x="235" y="340" width="80" height="30" as="geometry" />
        </mxCell>
        <mxCell id="msj6g4gSFK3G4fQuRRlu-7" value="" style="endArrow=classic;html=1;rounded=0;exitX=0.648;exitY=-0.013;exitDx=0;exitDy=0;exitPerimeter=0;" edge="1" parent="1" source="msj6g4gSFK3G4fQuRRlu-6">
          <mxGeometry width="50" height="50" relative="1" as="geometry">
            <mxPoint x="295" y="290" as="sourcePoint" />
            <mxPoint x="365" y="289.5" as="targetPoint" />
            <Array as="points">
              <mxPoint x="287" y="290" />
            </Array>
          </mxGeometry>
        </mxCell>
        <mxCell id="msj6g4gSFK3G4fQuRRlu-8" value="&lt;font style=&quot;font-size: 8px;&quot;&gt;Acquired Data&lt;/font&gt;" style="text;html=1;align=center;verticalAlign=middle;resizable=0;points=[];autosize=1;strokeColor=none;fillColor=none;" vertex="1" parent="1">
          <mxGeometry x="290" y="290" width="70" height="30" as="geometry" />
        </mxCell>
        <mxCell id="msj6g4gSFK3G4fQuRRlu-13" value="" style="endArrow=none;html=1;rounded=0;" edge="1" parent="1">
          <mxGeometry width="50" height="50" relative="1" as="geometry">
            <mxPoint x="530" y="369" as="sourcePoint" />
            <mxPoint x="600" y="369" as="targetPoint" />
          </mxGeometry>
        </mxCell>
        <mxCell id="msj6g4gSFK3G4fQuRRlu-14" value="" style="endArrow=none;html=1;rounded=0;" edge="1" parent="1">
          <mxGeometry width="50" height="50" relative="1" as="geometry">
            <mxPoint x="530" y="339" as="sourcePoint" />
            <mxPoint x="600" y="339" as="targetPoint" />
          </mxGeometry>
        </mxCell>
        <mxCell id="msj6g4gSFK3G4fQuRRlu-15" value="Data Store" style="text;html=1;align=center;verticalAlign=middle;resizable=0;points=[];autosize=1;strokeColor=none;fillColor=none;" vertex="1" parent="1">
          <mxGeometry x="530" y="340" width="80" height="30" as="geometry" />
        </mxCell>
        <mxCell id="msj6g4gSFK3G4fQuRRlu-16" value="&lt;font style=&quot;font-size: 8px;&quot;&gt;Model Analysis&lt;/font&gt;" style="text;html=1;align=center;verticalAlign=middle;resizable=0;points=[];autosize=1;strokeColor=none;fillColor=none;" vertex="1" parent="1">
          <mxGeometry x="480" y="290" width="80" height="30" as="geometry" />
        </mxCell>
        <mxCell id="msj6g4gSFK3G4fQuRRlu-17" value="" style="endArrow=classic;html=1;rounded=0;exitX=0.56;exitY=-0.067;exitDx=0;exitDy=0;exitPerimeter=0;" edge="1" parent="1" source="msj6g4gSFK3G4fQuRRlu-15">
          <mxGeometry width="50" height="50" relative="1" as="geometry">
            <mxPoint x="580" y="290" as="sourcePoint" />
            <mxPoint x="610" y="290" as="targetPoint" />
            <Array as="points">
              <mxPoint x="575" y="290" />
            </Array>
          </mxGeometry>
        </mxCell>
        <mxCell id="msj6g4gSFK3G4fQuRRlu-18" value="&lt;font style=&quot;font-size: 8px;&quot;&gt;Raw Data&lt;/font&gt;" style="text;html=1;align=center;verticalAlign=middle;resizable=0;points=[];autosize=1;strokeColor=none;fillColor=none;" vertex="1" parent="1">
          <mxGeometry x="225" y="260" width="60" height="30" as="geometry" />
        </mxCell>
        <mxCell id="msj6g4gSFK3G4fQuRRlu-19" value="&lt;span style=&quot;font-size: 8px;&quot;&gt;Cloudburst Prediction&lt;/span&gt;" style="text;html=1;align=center;verticalAlign=middle;resizable=0;points=[];autosize=1;strokeColor=none;fillColor=none;" vertex="1" parent="1">
          <mxGeometry x="525" y="255" width="100" height="30" as="geometry" />
        </mxCell>
        <mxCell id="msj6g4gSFK3G4fQuRRlu-20" value="&lt;font style=&quot;font-size: 8px;&quot;&gt;Processed Data&lt;/font&gt;" style="text;html=1;align=center;verticalAlign=middle;resizable=0;points=[];autosize=1;strokeColor=none;fillColor=none;" vertex="1" parent="1">
          <mxGeometry x="275" y="439.55" width="80" height="30" as="geometry" />
        </mxCell>
        <mxCell id="msj6g4gSFK3G4fQuRRlu-21" style="edgeStyle=orthogonalEdgeStyle;rounded=0;orthogonalLoop=1;jettySize=auto;html=1;entryX=0.388;entryY=-0.013;entryDx=0;entryDy=0;entryPerimeter=0;exitX=0.126;exitY=0.98;exitDx=0;exitDy=0;exitPerimeter=0;" edge="1" target="msj6g4gSFK3G4fQuRRlu-24" parent="1" source="msj6g4gSFK3G4fQuRRlu-20">
          <mxGeometry relative="1" as="geometry">
            <mxPoint x="311" y="470" as="sourcePoint" />
            <Array as="points">
              <mxPoint x="311" y="469" />
            </Array>
          </mxGeometry>
        </mxCell>
        <mxCell id="msj6g4gSFK3G4fQuRRlu-22" value="" style="endArrow=none;html=1;rounded=0;" edge="1" parent="1">
          <mxGeometry width="50" height="50" relative="1" as="geometry">
            <mxPoint x="290" y="549.05" as="sourcePoint" />
            <mxPoint x="360" y="549.05" as="targetPoint" />
          </mxGeometry>
        </mxCell>
        <mxCell id="msj6g4gSFK3G4fQuRRlu-23" value="" style="endArrow=none;html=1;rounded=0;" edge="1" parent="1">
          <mxGeometry width="50" height="50" relative="1" as="geometry">
            <mxPoint x="290" y="519.55" as="sourcePoint" />
            <mxPoint x="360" y="519.55" as="targetPoint" />
          </mxGeometry>
        </mxCell>
        <mxCell id="msj6g4gSFK3G4fQuRRlu-24" value="Data Store" style="text;html=1;align=center;verticalAlign=middle;resizable=0;points=[];autosize=1;strokeColor=none;fillColor=none;" vertex="1" parent="1">
          <mxGeometry x="280" y="520" width="80" height="30" as="geometry" />
        </mxCell>
        <mxCell id="msj6g4gSFK3G4fQuRRlu-25" value="" style="endArrow=classic;html=1;rounded=0;exitX=0.648;exitY=-0.013;exitDx=0;exitDy=0;exitPerimeter=0;entryX=0;entryY=0.5;entryDx=0;entryDy=0;" edge="1" source="msj6g4gSFK3G4fQuRRlu-24" parent="1" target="sed4JzWXdzyUHWOQvcSt-44">
          <mxGeometry width="50" height="50" relative="1" as="geometry">
            <mxPoint x="340" y="469.55" as="sourcePoint" />
            <mxPoint x="370" y="470" as="targetPoint" />
            <Array as="points">
              <mxPoint x="332" y="469.55" />
            </Array>
          </mxGeometry>
        </mxCell>
        <mxCell id="msj6g4gSFK3G4fQuRRlu-26" value="&lt;font style=&quot;font-size: 8px;&quot;&gt;Training Data&lt;/font&gt;" style="text;html=1;align=center;verticalAlign=middle;resizable=0;points=[];autosize=1;strokeColor=none;fillColor=none;" vertex="1" parent="1">
          <mxGeometry x="405" y="442" width="70" height="30" as="geometry" />
        </mxCell>
        <mxCell id="msj6g4gSFK3G4fQuRRlu-33" value="&lt;font style=&quot;font-size: 8px;&quot;&gt;Testing Data&lt;/font&gt;" style="text;html=1;align=center;verticalAlign=middle;resizable=0;points=[];autosize=1;strokeColor=none;fillColor=none;" vertex="1" parent="1">
          <mxGeometry x="470" y="497.54999999999995" width="70" height="30" as="geometry" />
        </mxCell>
        <mxCell id="msj6g4gSFK3G4fQuRRlu-34" value="&lt;font style=&quot;font-size: 8px;&quot;&gt;Model Testing&lt;/font&gt;" style="text;html=1;align=center;verticalAlign=middle;resizable=0;points=[];autosize=1;strokeColor=none;fillColor=none;" vertex="1" parent="1">
          <mxGeometry x="525" y="438.82000000000005" width="70" height="30" as="geometry" />
        </mxCell>
      </root>
    </mxGraphModel>
  </diagram>
</mxfile>
